<?xml version="1.0" encoding="UTF-8" standalone="no"?>
<!-- Created with Inkscape (http://www.inkscape.org/) -->

<svg
   version="1.1"
   id="svg1"
   width="366"
   height="374"
   viewBox="0 0 366 374"
   xmlns:xlink="http://www.w3.org/1999/xlink"
   xmlns="http://www.w3.org/2000/svg"
   xmlns:svg="http://www.w3.org/2000/svg">
  <defs
     id="defs1" />
  <g
     id="g1">
    <g
       id="g58917">
      <path
         style="fill:#43abf7"
         d="M 161,357.9635 C 41.010796,343.21516 -28.809716,216.81452 23.374912,108.81181 73.239256,5.6112212 208.09273,-21.787731 294.58978,53.707533 305.12127,62.899496 327,83.986871 327,84.945473 c 0,0.644685 -14.70895,17.902387 -41,48.104437 -6.875,7.89771 -16.1,18.70092 -20.5,24.00713 -22.02408,26.56009 -27.79372,32.51943 -29.35092,30.31593 -1.26202,-1.7858 -33.28522,-30.91441 -37.11534,-33.76047 -6.0427,-4.49017 -20.65237,-4.47772 -30.15712,0.0257 -30.98519,14.68102 -28.36092,54.61984 4.62328,70.36174 26.74226,12.76291 70.17328,5.91591 115.84439,-18.26311 17.58085,-9.30759 16.86089,-9.42612 32.75319,5.39264 7.29668,6.80379 18.35975,17.05104 24.58461,22.77168 14.07079,12.93107 14.35474,12.38875 -32.78319,62.61316 C 270.14555,343.13255 216.3231,364.76348 161,357.9635 Z"
         id="path58919" />
      <path
         style="fill:#de931b"
         d="M 161,357.9635 C 41.010796,343.21516 -28.809716,216.81452 23.374912,108.81181 73.239256,5.6112212 208.09273,-21.787731 294.58978,53.707533 305.12127,62.899496 327,83.986871 327,84.945473 c 0,0.644685 -14.70895,17.902387 -41,48.104437 -6.875,7.89771 -16.1,18.70092 -20.5,24.00713 -29.43668,35.49937 -24.99442,34.03114 -45.73918,15.11736 C 184.87573,140.36837 186.08057,148.3593 211.75,119.04363 228.71665,99.666935 228.82149,100.61352 209,94.213281 134.40971,70.128523 62.407921,144.24647 88.552575,218.2007 c 14.467055,40.92232 47.274575,63.45414 95.633055,65.67967 9.72662,0.44763 17.25023,1.23647 18.03937,1.8914 0.74456,0.61793 3.13602,1.56905 5.31437,2.1136 2.17835,0.54455 6.91117,2.06925 10.51739,3.38823 6.71447,2.45582 18.25782,5.40826 32.44324,8.29798 7.93245,1.61593 39.36005,1.51763 54.25,-0.16968 6.96392,-0.78915 6.75586,-0.0314 -2.5,9.10501 -36.47969,36.00882 -92.13036,55.49408 -141.25,49.45659 z"
         id="path58918" />
      <path
         style="fill:#bf1597"
         d="M 161,357.9635 C 85.035371,348.62639 23.952397,292.54355 9.1024603,218.5 5.1518701,198.80189 5.239393,194.2413 9.6722364,188.81048 11.777506,186.23125 14.85,182.25228 16.5,179.96832 c 4.837177,-6.69569 29.58683,-29.9073 31.935549,-29.95094 0.514552,-0.01 2.00975,-1.02654 3.322662,-2.25996 2.602144,-2.44458 4.887987,-3.71441 20.403851,-11.33465 11.692272,-5.74238 13.6307,-6.50295 23.140731,-9.07961 C 100.60488,125.9066 103.17658,124.50729 106.96049,121 122.6606,106.44758 134.50257,98.517788 145,95.52741 c 1.375,-0.391693 -1.92699,1.556111 -7.33775,4.328453 -62.458849,32.002377 -73.544298,112.318077 -21.92269,158.833057 19.02575,17.14364 36.95411,23.74214 68.44607,25.19145 9.72662,0.44763 17.25023,1.23647 18.03937,1.8914 0.74456,0.61793 3.13602,1.56905 5.31437,2.1136 2.17835,0.54455 6.91117,2.06925 10.51739,3.38823 6.71447,2.45582 18.25782,5.40826 32.44324,8.29798 7.93245,1.61593 39.36005,1.51763 54.25,-0.16968 6.96392,-0.78915 6.75586,-0.0314 -2.5,9.10501 -36.47969,36.00882 -92.13036,55.49408 -141.25,49.45659 z m 58.76082,-185.7891 c -34.5119,-31.46579 -32.48444,-25.29481 -14.88031,-45.29102 10.59548,-12.03522 10.53923,-11.99529 7.10579,-5.04341 -4.03358,8.167 -2.84371,11.29482 3.08889,8.11979 1.6186,-0.86625 2.09639,-0.63866 2.85654,1.36068 0.82582,2.17206 4.88683,4.96457 16.24494,11.17063 2.02216,1.10491 5.62216,3.07386 8,4.37544 2.37783,1.30158 5.02188,2.97833 5.87567,3.72611 0.85379,0.74778 2.65161,1.52736 3.99515,1.7324 1.60071,0.24428 2.44449,1.02816 2.44766,2.27389 0.004,1.66176 0.66577,1.86585 5.25485,1.62116 7.52964,-0.40149 8.08259,-1.43335 -11.05481,20.62927 -11.10748,12.8053 -9.47212,13.06953 -28.93437,-4.67494 z"
         id="path58917" />
    </g>
  </g>
</svg>
