<?xml version="1.0" encoding="utf-8"?>
<!-- Generator: Adobe Illustrator 27.5.0, SVG Export Plug-In . SVG Version: 6.00 Build 0)  -->
<svg version="1.1" id="Capa_1" xmlns="http://www.w3.org/2000/svg" xmlns:xlink="http://www.w3.org/1999/xlink" x="0px" y="0px"
	 viewBox="0 0 2532 1778" style="enable-background:new 0 0 2532 1778;" xml:space="preserve">
<g>
	<rect x="0" y="-0.005" style="opacity:0.9;fill:#de931b;" width="2531.894" height="1777.326"/>
	<path style="opacity:0.6;fill:#B4E3F6;" d="M1913.666,213.908c-376.078-75.381-738.516-68.585-1118.424-23.089
		c-204.398,24.478-449.654,58.285-554.635,243.717c-73.569,129.945,13.208,165.375,60.005,270.241
		c45.523,102.008-48.7,166.731-100.403,245.261c-55.021,83.565-90.487,212.711-50.147,306.37
		c158.327,367.579,842.357,380.334,1192.514,356.725c305.43-20.597,903.945-4.331,1034.434-332.2
		c69.233-173.982-45.774-352.384-45.466-527.886c0.199-114.078,31.784-226.828-39.692-330.783
		C2206.231,297.74,2064.895,244.219,1913.666,213.908z"/>
</g>
<path style="opacity:0.6;fill:#D9D1E4;" d="M867.4,1255.282v-45.342h-36.259c-0.636-4.026-1.45-7.996-2.396-11.91l33.845-13.365
	l-16.65-42.17l-34.251,13.52c-2.9-4.894-6.047-9.63-9.454-14.158l26.137-26.139l-32.061-32.062l-26.383,26.383
	c-3.813-2.783-7.75-5.402-11.817-7.832l14.332-34.511l-41.876-17.387l-14.398,34.675c-4.618-1.135-9.308-2.074-14.078-2.778v-37.576
	h-45.342v37.576c-3.879,0.572-7.701,1.319-11.478,2.177l-13.794-34.943l-42.174,16.65l13.736,34.788
	c-4.883,2.806-9.602,5.857-14.126,9.161l-26.383-26.383l-32.062,32.062l26.137,26.139c-2.875,3.815-5.566,7.776-8.079,11.859
	l-34.023-14.13l-17.387,41.879l33.601,13.952c-1.236,4.754-2.241,9.601-3.02,14.524h-36.257v45.342h35.818
	c0.565,4.111,1.293,8.17,2.177,12.173l-33.188,13.102l16.65,42.17l32.791-12.943c2.924,5.152,6.124,10.127,9.604,14.89
	l-24.825,24.83l32.062,32.062l24.578-24.581c4.043,3.041,8.236,5.899,12.577,8.541l-13.288,32l41.874,17.387l13.217-31.831
	c4.993,1.267,10.085,2.286,15.261,3.051v34.459h45.342v-34.459c4.263-0.629,8.461-1.464,12.605-2.441l12.669,32.09l42.174-16.65
	l-12.734-32.249c5.169-3.022,10.165-6.312,14.926-9.897l24.581,24.581l32.061-32.062l-24.825-24.83
	c2.949-4.036,5.702-8.227,8.255-12.549l32.533,13.51l17.387-41.879l-32.924-13.67c1.161-4.852,2.093-9.789,2.783-14.806H867.4z
	 M679.419,1321.404c-49.04,0-88.795-39.753-88.795-88.793s39.755-88.793,88.795-88.793c49.04,0,88.795,39.753,88.795,88.793
	S728.459,1321.404,679.419,1321.404z"/>
<path style="opacity:0.6;fill:#D9D1E4;" d="M1570.691,466.461V421.12h-36.257c-0.638-4.031-1.453-7.997-2.398-11.915l33.847-13.361
	l-16.652-42.175l-34.251,13.525c-2.9-4.9-6.047-9.63-9.453-14.158l26.136-26.139l-32.061-32.061l-26.383,26.383
	c-3.813-2.783-7.75-5.401-11.817-7.832l14.332-34.511l-41.876-17.392l-14.398,34.68c-4.617-1.135-9.308-2.074-14.078-2.783v-37.57
	h-45.342v37.57c-3.879,0.577-7.699,1.323-11.479,2.182l-13.795-34.943l-42.174,16.646l13.736,34.792
	c-4.883,2.802-9.601,5.857-14.125,9.161l-26.383-26.383l-32.061,32.061l26.136,26.139c-2.874,3.815-5.566,7.776-8.078,11.854
	l-34.021-14.126l-17.389,41.874l33.601,13.957c-1.236,4.753-2.241,9.601-3.02,14.524h-36.257v45.342h35.818
	c0.566,4.111,1.293,8.17,2.177,12.168l-33.187,13.103l16.65,42.175l32.791-12.948c2.924,5.158,6.125,10.132,9.604,14.895
	l-24.825,24.825l32.061,32.061l24.579-24.576c4.043,3.041,8.236,5.899,12.577,8.536l-13.288,32.005l41.874,17.387l13.217-31.831
	c4.993,1.267,10.085,2.285,15.261,3.05v34.459h45.342v-34.459c4.266-0.629,8.462-1.464,12.605-2.44l12.668,32.089l42.175-16.65
	l-12.734-32.249c5.171-3.022,10.165-6.311,14.928-9.897l24.578,24.576l32.061-32.061l-24.825-24.825
	c2.95-4.036,5.702-8.227,8.255-12.549l32.533,13.506l17.387-41.874l-32.925-13.67c1.161-4.852,2.093-9.79,2.785-14.806H1570.691z
	 M1382.711,532.583c-49.04,0-88.795-39.753-88.795-88.793c0-49.04,39.755-88.797,88.795-88.797c49.04,0,88.795,39.757,88.795,88.797
	C1471.506,492.83,1431.751,532.583,1382.711,532.583z"/>
<path style="opacity:0.6;fill:#D9D1E4;" d="M2028.262,1235.878v-46.384h-18.285c-0.819-5.739-1.919-11.389-3.318-16.922
	l16.899-6.936l-17.617-42.911l-16.974,6.969c-3.104-5.256-6.467-10.334-10.118-15.186l12.978-12.98l-32.803-32.803l-12.999,12.999
	c-4.581-3.431-9.358-6.617-14.292-9.564l7.096-16.974l-42.801-17.889l-7.089,16.96c-5.836-1.506-11.81-2.67-17.88-3.529v-18.438
	h-46.389v18.438c-5.72,0.812-11.352,1.9-16.868,3.29l-6.985-17.021l-42.914,17.617l6.992,17.03
	c-5.251,3.093-10.336,6.443-15.191,10.08l-12.999-12.999l-32.801,32.803l12.978,12.98c-3.444,4.58-6.645,9.349-9.602,14.285
	l-16.918-7.067l-17.887,42.798l16.847,7.04c-1.518,5.856-2.701,11.84-3.571,17.931h-18.285v46.384h18.241
	c0.809,5.749,1.903,11.408,3.292,16.95l-16.826,6.908l17.614,42.911l16.814-6.903c3.104,5.284,6.469,10.395,10.127,15.275
	l-12.825,12.825l32.801,32.803l12.807-12.807c4.604,3.463,9.404,6.678,14.367,9.648l-6.979,16.697l42.801,17.889l6.96-16.65
	c5.878,1.52,11.894,2.698,18.008,3.567v18.091h46.389v-18.091c5.767-0.816,11.441-1.919,16.997-3.318l6.858,16.702l42.914-17.617
	l-6.878-16.749c5.282-3.116,10.388-6.5,15.268-10.169l12.804,12.807l32.803-32.803L1979,1311.019
	c3.454-4.604,6.65-9.409,9.611-14.374l16.756,7.001l17.889-42.798l-16.762-7.006c1.513-5.862,2.67-11.864,3.529-17.964H2028.262z
	 M1847.866,1313.539c-55.603,0-100.68-45.075-100.68-100.68c0-55.605,45.077-100.679,100.68-100.679
	c55.605,0,100.68,45.075,100.68,100.679C1948.546,1268.464,1903.471,1313.539,1847.866,1313.539z"/>
<path style="opacity:0.6;fill:#B4E3F6;" d="M1360.073,1376.991v-47.858h-18.865c-0.845-5.922-1.983-11.751-3.426-17.457
	l17.436-7.156l-18.175-44.272l-17.511,7.189c-3.203-5.421-6.673-10.662-10.439-15.67l13.388-13.389l-33.842-33.845l-13.412,13.412
	c-4.724-3.543-9.653-6.823-14.745-9.864l7.321-17.518l-44.157-18.453l-7.314,17.495c-6.023-1.554-12.185-2.755-18.448-3.641v-19.02
	h-47.857v19.02c-5.906,0.835-11.713,1.961-17.405,3.393l-7.208-17.561l-44.275,18.175l7.215,17.575
	c-5.418,3.191-10.662,6.645-15.672,10.399l-13.412-13.412l-33.84,33.845l13.389,13.389c-3.555,4.726-6.856,9.648-9.906,14.74
	l-17.453-7.293l-18.457,44.155l17.384,7.264c-1.57,6.04-2.787,12.215-3.684,18.499h-18.867v47.858h18.82
	c0.835,5.932,1.962,11.77,3.395,17.485l-17.359,7.128l18.173,44.272l17.347-7.119c3.203,5.448,6.673,10.719,10.448,15.754
	l-13.231,13.234l33.84,33.844l13.213-13.215c4.749,3.576,9.703,6.889,14.825,9.958l-7.202,17.223l44.16,18.457l7.178-17.176
	c6.065,1.572,12.272,2.783,18.583,3.679v18.663h47.857v-18.663c5.951-0.845,11.805-1.98,17.537-3.426l7.075,17.237l44.275-18.175
	l-7.096-17.284c5.451-3.219,10.719-6.706,15.754-10.493l13.211,13.215l33.842-33.844l-13.231-13.234
	c3.562-4.749,6.859-9.705,9.914-14.83l17.289,7.227l18.454-44.159l-17.293-7.227c1.56-6.049,2.755-12.239,3.642-18.532H1360.073z
	 M1173.956,1457.111c-57.369,0-103.873-46.506-103.873-103.871s46.504-103.871,103.873-103.871
	c57.367,0,103.874,46.506,103.874,103.871S1231.323,1457.111,1173.956,1457.111z"/>
<g>
	<g>
		<g>
			<g>
				<g>
					<path style="fill:#EAB1B8;" d="M582.505,925.283c-21.516-55.333-34.154-56.816-51.684-81.158
						c-25.666-35.646-78.614-64.315-84.286-36.515c-2.78,13.623,98.512,117.175,114.559,137.767
						C568.795,941.966,573.96,930.868,582.505,925.283z"/>
				</g>
			</g>
		</g>
		<g>
			<g>
				<path style="fill:#EC857F;" d="M559.52,953.445c-13.947-16.964-71.209-84.766-77.15-90.801
					c-34.609-35.182-50.842-49.828-37.286-70.889c15.357-23.859,57.93,12.577,86.815,44.328
					c19.071,20.963,28.161,32.469,54.408,76.024C590.744,926.747,575.401,958.438,559.52,953.445z"/>
			</g>
		</g>
		<g>
			<g>
				<g>
					<path style="fill:#EAB1B8;" d="M566.844,942.267c-4.9-3.37-17.716-15.524-15.221-23.948c2.093-7.058,5.62-7.978,5.612-7.973
						c36.832-16.589,71.526-28.955,100.534-36.698c28.526-7.617,12.492,15.557,12.492,15.557
						C642.273,906.615,617.312,925.326,566.844,942.267z"/>
				</g>
			</g>
		</g>
		<path style="fill:#EAB1B8;" d="M669.283,864.061c-5.965,6.457-11.511,13.393-10.263,15.899l0.251,0.497
			c0.662-0.263,1.331-0.526,2-0.793c0,0-1.676,1.37,0.779-0.31c0.202-0.08,0.403-0.164,0.605-0.244
			c-1.487,2.163-2.048,4.5-0.631,6.87c4.66,7.799,16.221,1.356,22.148-1.234c4.817-2.102,9.254-5.129,13.475-8.226
			c4.944-3.628,9.111-15.326,3.794-20.226c-5.448-5.021-9.691,5.219-14.104,1.169c-2.447-2.243,1.718-11.924-5.561-6.073
			C680.379,852.821,674.661,858.246,669.283,864.061z"/>
		<g>
			<g>
				<path style="fill:#EC857F;" d="M651.532,874.906c-27.946,7.799-63.097,16.904-97.813,32.535
					c-4.824,9.752-0.005,3.82-2.098,10.878c-2.495,8.424,5.603,32.225,10.502,35.59c45.661-15.326,74.649-41.804,99.683-57.759
					L651.532,874.906z"/>
			</g>
		</g>
		<g>
			<g>
				<path style="fill:#FFFFFF;" d="M651.795,902.88c3.421-2.389,6.753-4.651,10.012-6.725l-10.275-21.249
					c-3.867,1.079-7.881,2.252-12.005,3.496L651.795,902.88z"/>
			</g>
		</g>
	</g>
	<g>
		<g>
			<g>
				<path style="fill:#FFFFFF;" d="M2037.075,828.146c-9.43,15.792-13.468,32.864-13.545,51.738
					c-0.096,24.196-19.795,6.218-16.976,53.954c1.872,31.756-14.353,121.342-10.364,152.887l124.635-4.989
					c-3.086-18.433-20.034-192.354-21.055-200.933c-2.818-23.746-12.894-50.495-30.491-69.003
					c-0.34-0.357-11.232,8.527-12.605,9.343c-5.024,2.994-10.359,5.209-16.082,6.443
					C2039.706,827.781,2038.441,827.973,2037.075,828.146z"/>
				<g>
					<g>
						<g>
							<g>
								<path style="fill:#EAB1B8;" d="M1902.389,870.326c4.58-1.004,30.867,9.348,33.265,2.069
									c2.008-6.101-3.426-16.101-3.423-16.092c-14.876-24.67-47.973-68.036-62.173-83.373
									c-13.964-15.088-14.928,7.907-14.928,7.907C1864.195,803.27,1879.301,840.972,1902.389,870.326z"/>
							</g>
						</g>
					</g>
					<g>
						<g>
							<path style="fill:#FFFFFF;" d="M1921.383,837.706c17.957-1.38,41.177-0.014,48.165-1.15
								c40.71-6.621,79.503-11.253,82.941,7.382c3.893,21.113-39.295,34.867-74.566,38.969c-30.67,3.562-51.947-0.474-84.26-2.994
								C1895.7,867.017,1908.907,845.876,1921.383,837.706z"/>
						</g>
					</g>
					<path style="fill:#EAB1B8;" d="M1844.02,734.126c2.333,0.45,4.937,1.192,5.554,1.802c7.077,6.913,12.046,12.657,15.688,21.995
						c1.138,2.924,16.723,40.542,17.537,40.372l-17.229-0.568c-10.519-14.641-23.323-27.898-29.703-44.933
						C1833.407,746.228,1834.217,732.253,1844.02,734.126z"/>
				</g>
				<g>
					<path style="fill:#4865A2;" d="M2113.207,739.297c3.21,8.011,7.731,15.401,14.512,21.892
						c4.489,4.294,8.569,9.273,11.484,14.787c4.059,7.677,7.414,25.449,3.151,33.221c-4.993,9.104-13.792,9.517-7.872,21.784
						c3.26,6.758,12.239,13.384,9.24,22.253c-5.216,15.421-30.386,10.066-41.139,9.161c-9.09-0.765-19.253,1.99-28.002-1.291
						c-5.566-2.088-7.321-6.401-11.607-9.836c-4.46-3.576-10.348-5.575-14.961-9.268c-4.744-3.801-11.598-6.786-15.552-11.371
						c-11.115-12.881-8.4-39.335-14.168-55.112c-4.242-11.601-8.644-23.591-11.169-35.708c-2.344-11.258-2.267-22.582-0.054-33.849
						c0.971-4.946,1.748-12.751,4.463-17.035c14.428-22.793,46.189-24.595,69.144-15.847c17.75,6.767,23.032,24.314,26.019,41.405
						C2108.212,723.168,2110.094,731.526,2113.207,739.297z"/>
					<g>
						<g>
							<path style="fill:#EAB1B8;" d="M2078.084,746.393c-1.323,6.617-10.908,15.463-13.323,9.799
								c-1.479-3.463-2.781-11.084-1.46-17.706c1.323-6.617,0.216-7.466,6.251-6.26
								C2075.587,733.432,2079.407,739.771,2078.084,746.393z"/>
						</g>
					</g>
					<path style="fill:#EAB1B8;" d="M2065.744,768.449c-1.021-13.342-40.142,11.464-40.142,11.464l4.186,50.917
						c0,0,0.408-2.041,19.649-1.591c11.727,0.277,21.674-0.286,21.09-11.239C2070.163,811.229,2066.096,773.067,2065.744,768.449z"
						/>
					<path style="fill:#E5958A;" d="M2066.333,781.326c-5.537,17.88-21.43,30.776-38.071,29.447l-2.661-30.86
						c0,0,39.122-24.811,40.142-11.464c0.108,1.417,0.566,5.978,1.157,11.817C2066.662,780.557,2066.464,780.899,2066.333,781.326z"
						/>
					<path style="fill:#EAB1B8;" d="M2022.925,790.848c12.917,6.134,33.708-1.366,40.818-13.224
						c4.301-7.171,5.958-14.431,5.406-22.465c-0.624-9.048-3.266-17.11-3.963-26.195c-0.301-3.923-0.697-7.865-1.813-11.648
						c-1.783-6.049-5.432-11.582-10.357-15.697c-4.84-4.054-11.199-5.181-17.098-7.128c-4.991-1.647-10.658-3.796-16.012-3.468
						c-3.693,0.225-5.573,2.905-8.072,5.425c-13.56,13.68-16.204,38.11-12.354,56.271
						C2002.347,766.239,2009.635,784.536,2022.925,790.848z"/>
					<path style="fill:#EAB1B8;" d="M2011.134,1109.932c1.22,25.435,8.837,42.146,14.363,56.619
						c28.788,75.404,49.655,146.909,61.847,167.43c13.334,22.446,52.651-17.889,52.651-17.889s-54.249-224.763-66.758-239.208
						C2060.73,1062.44,2010.155,1089.537,2011.134,1109.932z"/>
					<path style="fill:#3F578E;" d="M2011.134,1109.932c1.22,25.435,8.837,42.146,14.363,56.619
						c28.788,75.404,49.655,146.909,61.847,167.43c13.334,22.446,55.952-8.761,55.952-8.761s-48.151-232.525-60.659-246.969
						C2070.129,1063.81,2010.155,1089.537,2011.134,1109.932z"/>
					<path style="fill:#EAB1B8;" d="M2094.392,1364.451c0,0,9.946,32.282,87.894,128.391c10.422,12.849,14.583-5.739,14.583-5.739
						s-60.744-143.408-71.103-157.195C2115.406,1316.12,2094.392,1364.451,2094.392,1364.451z"/>
					<path style="fill:#3F578E;" d="M2121.722,1443.863c-27.402-49.711-37.076-113.927-37.076-113.927s46.94-20.527,57.3-6.739
						c5.23,6.959,24.121,48.331,41.796,88.309C2169.986,1418.339,2121.858,1443.802,2121.722,1443.863z"/>
					<path style="fill:#EAB1B8;" d="M2013.091,1098.218c-14.245,21.109-18.145,39.053-22.38,53.963
						c-22.063,77.633-33.183,137.218-35.698,160.954c-2.75,25.961,37.934,27.368,37.934,27.368s91.053-212.533,89.673-231.59
						C2081.244,1089.856,2024.511,1081.301,2013.091,1098.218z"/>
					<path style="fill:#EAB1B8;" d="M1955.817,1363.828c0,0-5.568,34.511,24.513,154.544c4.02,16.05,16.598-0.094,16.598-0.094
						s5.155-133.966,1.586-150.837C1994.946,1350.561,1955.817,1363.828,1955.817,1363.828z"/>
					<path style="fill:#4865A2;" d="M1945.101,1472.18c-9.865-73.668,5.056-149.658,5.056-149.658s44.969,1.328,48.538,18.203
						c2.009,9.503,17.657,93.477,18.201,131.455H1945.101z"/>
					<path style="fill:#4865A2;" d="M1956.401,1275.602c5.934-33.108,13.696-65.887,23.234-98.141
						c10.833-36.627,19.994-68.75,35.018-103.777c3.857-8.996-1.239-47.21,4.639-51.104c13.694-9.081,48.702,1.999,67.375,5.688
						c4.454,0.877,7.284,3.139,11.125,5.561c6.272,3.951,14.557,25.256,16.683,32.357c5.784,19.316,1.428,43.399-8.86,59.819
						c-8.236,13.145-16.007,26.576-23.574,40.114c-6.5,11.634-14.548,22.014-21.223,33.708
						c-14.884,26.069-24.572,54.427-35.436,82.463c-3.674,9.484-27.019,54.46-27.127,61.039
						c-0.57,34.807-31.688-14.651-42.369-17.771c-6.152-1.797-5.793-2.933-5.422-9.559c0.284-5.059,1.016-10.089,1.769-15.092
						C1953.504,1292.454,1954.893,1284.017,1956.401,1275.602z"/>
					<path style="fill:#EAB1B8;" d="M2016.481,1040.534c-3.017-60.246-14.733-148.88-7.138-157.453
						c13.368-15.088,13.996-48.045,23.668-60.139c14.463-18.077,26.961-26.571,45.039-0.404
						c6.131,8.874,13.705,62.063,15.153,68.708c3.205,14.721,4.421,88.079,8.053,147.172L2016.481,1040.534z"/>
					<path style="fill:#6FC3EE;" d="M2016.481,1040.534c-3.123-44.122-6.096-80.618-9.928-106.696
						c-1.161-7.898-3.567-15.548-4.879-23.333c-1.21-7.203,2.206-17.115,5.103-23.614c2.954-6.631,6.056-13.257,8.868-19.958
						c2.766-6.594,4.92-13.417,7.079-20.226c0.673-2.121,4.254-17.542,6.385-17.72c0.232-0.024,8.295-0.708,11.481-1.398
						c5.723-1.234,11.058-3.449,16.08-6.443c1.375-0.816,12.267-9.7,12.607-9.343c17.598,18.508,27.674,45.257,30.494,69.003
						c1.018,8.579-0.516,139.644,2.57,158.078L2016.481,1040.534z"/>
					<path style="fill:#FFFFFF;" d="M2037.075,828.146c-9.43,15.792-13.468,32.864-13.545,51.738
						c-0.087,21.751,0.765,43.7,2.046,65.404c1.872,31.756,6.917,106.203,10.906,137.748l84.342-1.3
						c-3.086-18.433-20.034-192.354-21.055-200.933c-2.818-23.746-12.894-50.495-30.491-69.003
						c-0.34-0.357-11.232,8.527-12.605,9.343c-5.024,2.994-10.359,5.209-16.082,6.443
						C2039.706,827.781,2038.441,827.973,2037.075,828.146z"/>
					<path style="fill:#FFFFFF;" d="M2037.075,828.146c-9.43,15.792-13.468,32.864-13.545,51.738
						c-0.087,21.751,0.765,43.7,2.046,65.404c1.872,31.756,6.917,106.203,10.906,137.748l84.342-1.3
						c-3.086-18.433-20.034-192.354-21.055-200.933c-2.818-23.746-12.894-50.495-30.491-69.003
						c-0.34-0.357-11.232,8.527-12.605,9.343c-5.024,2.994-10.359,5.209-16.082,6.443
						C2039.706,827.781,2038.441,827.973,2037.075,828.146z"/>
					<path style="fill:#4865A2;" d="M2037.599,666.882c-9.688,0.859-19.217,3.951-28.312,7.162
						c-1.518,2.52-8.478,5.734-11.554,8.874c-4.292,4.374-7.398,8.743-9.289,14.59c-2.661,8.226-3.953,20.606-0.333,28.617
						c3.705,8.189,13.18,4.655,21.54,4.65c9.43,0,18.328-1.624,27.718-2.088c0.642-5.28,6.258-14.928,9.404-6.546
						c2.804,7.48-0.683,18.255,6.676,21.967c7.116,3.59,10.186-1.684,11.38-8.283c-0.305,1.685,0.056,0.418,1.084-3.811
						c2.241-9.273,2.189-16.847,7.577-24.91c4.73-7.086,6.586-19.972,1.628-27.434c-5.812-8.747-20.055-12.502-29.919-12.962
						C2042.657,666.587,2040.124,666.662,2037.599,666.882z"/>
					<path style="fill:#374D7E;" d="M1939.13,1528.644c4.747-0.694,6.223-0.037,10.979-0.817c4.686-0.77,9.301-2.412,13.55-4.519
						c4.205-2.089,10.324-6.354,13.933-9.236c0.455-0.366,0.917-0.671,1.382-0.948c6.422,2.966,10.099,2.769,16.979-0.141
						c0.655-0.277,1.079-0.676,1.316-1.14c0.2,0.16,0.38,0.343,0.54,0.549c1.103,1.407,1.298,3.355,1.556,5.063
						c0.483,3.182,1.98,16.406,1.328,19.541c-0.922,4.43-25.036,9.709-32.948,10.202c-10.657,0.662-18.786,1.108-29.307-0.596
						C1928.181,1544.942,1931.09,1529.817,1939.13,1528.644z"/>
					<path style="fill:#374D7E;" d="M2145.057,1512.557c4.209-2.304,5.822-2.201,10.01-4.585c4.127-2.351,7.882-5.495,11.134-8.95
						c3.215-3.421,7.471-9.545,9.85-13.506c0.303-0.502,0.629-0.948,0.967-1.366c7.053,0.549,10.432-0.915,15.871-6.04
						c0.517-0.483,0.775-1.009,0.84-1.525c0.24,0.08,0.472,0.188,0.695,0.324c1.523,0.939,2.384,2.698,3.219,4.21
						c1.56,2.816,7.56,14.693,8.041,17.856c0.676,4.477-20.099,17.814-27.345,21.024c-9.761,4.327-17.228,7.574-27.683,9.634
						C2140.461,1531.647,2137.929,1516.452,2145.057,1512.557z"/>
				</g>
			</g>
		</g>
		<path style="fill:#5B85C4;" d="M1818.402,907.277l153.316-88.619l-88.166-152.531c0.856-0.535,1.844-1.136,2.189-1.337
			c8.278-4.88,20.864-3.327,25.639-3.562c14.515,2.327,29.888-0.127,43.606-8.058c31.381-18.138,42.294-58.064,24.705-89.614
			l0.019-0.01c-0.061-0.103-0.124-0.197-0.183-0.295c-0.059-0.103-0.108-0.207-0.166-0.305l-0.016,0.01
			c-18.558-30.987-58.602-41.461-89.985-23.323c-13.717,7.931-23.518,20.024-28.749,33.765c-2.583,4.017-7.52,15.702-15.88,20.438
			c-0.35,0.197-1.361,0.755-2.253,1.229l-88.167-152.531l-376.125,217.404l217.404,376.125l153.676-88.825
			c-0.009-0.057-0.026-0.113-0.033-0.169l-1.27,0.732c-0.267-0.633-0.556-1.253-0.887-1.835
			c-4.735-8.363-16.418-13.295-20.439-15.881c-13.736-5.233-25.834-15.031-33.763-28.748c-18.138-31.381-7.664-71.43,23.323-89.985
			l-0.012-0.019c0.103-0.056,0.207-0.108,0.308-0.164c0.101-0.061,0.195-0.122,0.296-0.183l0.01,0.019
			c31.547-17.588,71.476-6.678,89.614,24.703c7.929,13.721,10.386,29.096,8.058,43.606c0.232,4.777-1.319,17.363,3.562,25.641
			c0.34,0.573,0.729,1.131,1.148,1.685l-1.375,0.793C1818.003,907.371,1818.2,907.314,1818.402,907.277z"/>
		<g>
			<g>
				<g>
					<g>
						<path style="fill:#EAB1B8;" d="M1913.209,919.901c3.634-2.966,17.962,14.459,40.562-9.47
							c4.409-4.669-20.282-16.533-20.278-16.528c-24.419-15.28-73.541-39.007-93.138-46.276
							c-19.276-7.142-9.744,13.802-9.744,13.802C1848.835,877.346,1879.348,904.147,1913.209,919.901z"/>
					</g>
				</g>
			</g>
			<g>
				<g>
					<path style="fill:#E6E7E8;" d="M1928.228,885.08c16.629-6.917,143.124-55.915,152.205-39.284
						c10.287,18.842-4.355,38.045-58.684,60.289c-28.575,11.699-58.794,14.881-90.278,22.568
						C1929.383,915.766,1918.925,896.737,1928.228,885.08z"/>
				</g>
			</g>
			<path style="fill:#EAB1B8;" d="M1799.591,824.782c2.281-0.657,4.944-1.168,5.767-0.905c9.437,2.97,16.467,5.847,23.933,12.534
				c2.339,2.093,33.241,28.602,33.891,28.086l-15.627,7.278c-16-8.306-33.413-14.341-46.804-26.655
				C1795.593,840.372,1789.996,827.541,1799.591,824.782z"/>
		</g>
	</g>
	<g>
		<path style="fill:#7BB1DC;" d="M957.88,850.484V673.401H781.702c-0.035-1.009-0.059-2.168-0.063-2.567
			c-0.082-9.611,7.56-19.729,9.749-23.98c9.276-11.399,14.844-25.937,14.844-41.785c0-36.247-29.108-65.676-65.221-66.234v-0.019
			c-0.117,0-0.232,0.01-0.347,0.01c-0.117,0-0.232-0.01-0.349-0.01v0.019c-36.111,0.559-65.221,29.987-65.221,66.234
			c0,15.848,5.568,30.386,14.844,41.785c2.189,4.251,9.834,14.369,9.749,23.98c-0.005,0.399-0.026,1.558-0.064,2.567H523.444
			v434.433H957.88V930.337c-0.054-0.019-0.108-0.033-0.162-0.056v1.464c-0.685-0.084-1.366-0.146-2.034-0.15
			c-9.609-0.085-19.729,7.56-23.978,9.747c-11.403,9.278-25.942,14.848-41.785,14.848c-36.247,0-65.676-29.109-66.234-65.225h-0.021
			c0-0.117,0.01-0.23,0.01-0.347s-0.01-0.23-0.01-0.347h0.021c0.558-36.116,29.987-65.221,66.234-65.221
			c15.843,0,30.381,5.566,41.785,14.844c4.249,2.187,14.369,9.831,23.978,9.747c0.668-0.005,1.349-0.066,2.034-0.15v1.591
			C957.76,850.879,957.814,850.677,957.88,850.484z"/>
		<g>
			<path style="fill:#E76C63;" d="M1632.47,737.383c1.046,2.469,1.877,4.946,2.443,7.405c3.658,15.942-2.41,39.636-5.101,55.765
				c-4.275,20.301,28.558,36.801,41.973,47.036c17.946,13.694,25.161,32.812,23.305,56.291
				c-1.628,20.554-15.782,43.962-35.241,52.578c-12.628,5.594-26.81,1.553-37.772,11.559c-11.404,10.409-12.03,33.708-33.408,23.051
				c-14.149-7.053-24.182-30.799-32.434-43.483c-13.224-20.334-16.127-45.689-29.959-65.568
				c-14.977-21.521-35.567-22.714-23.569-53.841c5.918-15.351-2.879-29.053-6.636-43.878c-4.378-17.269-0.385-33.371,6.962-48.725
				c4.196-8.766,2.623-17.758,7.649-26.355c5.446-9.315,10.041-17.72,19.529-23.633c20.088-12.516,52.278-6.767,68.614,9.24
				C1610.02,705.795,1625.724,721.479,1632.47,737.383z"/>
			<g>
				<g>
					<g>
						<path style="fill:#EAB1B8;" d="M1407.769,902.321c4.341-3.412,15.498-15.43,12.689-23.089
							c-2.356-6.42-5.681-7.063-5.673-7.058c-17.849-6.706-35.95-12.769-54.287-18.006c-5.803-1.652-19.128-7.968-24.961-6.485
							c-7.342,1.863-11.687,13.149-15.068,19.043c5.021-0.375,12.185,5.645,16.768,8.053c6.427,3.384,12.931,6.617,19.552,9.606
							C1373.239,891.814,1390.332,897.68,1407.769,902.321z"/>
					</g>
				</g>
			</g>
			<g>
				<g>
					<path style="fill:#9CD4F0;" d="M1419.536,868.087c18.178-3.726,42.092-5.317,49.09-7.382
						c40.762-12.009,79.822-21.742,85.738-3.13c6.696,21.081-35.68,40.706-71.209,49.435c-30.893,7.597-53.165,6.208-86.519,7.794
						C1397.055,901.359,1407.834,878.045,1419.536,868.087z"/>
				</g>
			</g>
			<g>
				<g>
					<path style="fill:#EAB1B8;" d="M1582.918,760.889c-1.363,6.819-11.239,15.928-13.726,10.094
						c-1.523-3.567-2.865-11.422-1.502-18.241c1.361-6.823,0.221-7.696,6.438-6.453
						C1580.347,747.533,1584.282,754.066,1582.918,760.889z"/>
				</g>
			</g>
			<path style="fill:#EAB1B8;" d="M1570.206,783.616c-1.051-13.75-41.362,11.807-41.362,11.807l4.315,52.465
				c0,0,0.42-2.107,20.245-1.638c12.082,0.282,22.331-0.295,21.728-11.586C1574.758,827.691,1570.569,788.37,1570.206,783.616z"/>
			<path style="fill:#E5958A;" d="M1570.811,796.878c-5.704,18.424-22.08,31.709-39.225,30.344l-2.743-31.798
				c0,0,40.312-25.557,41.362-11.807c0.11,1.455,0.582,6.157,1.19,12.173C1571.151,796.085,1570.945,796.442,1570.811,796.878z"/>
			<path style="fill:#EAB1B8;" d="M1526.086,806.691c13.309,6.316,34.731-1.408,42.057-13.623c4.43-7.391,6.139-14.871,5.568-23.15
				c-0.641-9.324-3.362-17.626-4.083-26.988c-0.31-4.041-0.718-8.1-1.868-11.999c-1.837-6.237-5.598-11.934-10.671-16.177
				c-4.989-4.176-11.539-5.34-17.617-7.344c-5.143-1.694-10.981-3.914-16.498-3.571c-3.804,0.23-5.744,2.994-8.316,5.589
				c-13.973,14.093-16.697,39.265-12.729,57.975C1504.884,781.336,1512.393,800.191,1526.086,806.691z"/>
			<path style="fill:#EAB1B8;" d="M1513.939,1135.456c1.256,26.204,9.102,43.423,14.799,58.337
				c29.659,77.694,51.159,151.367,63.719,172.513c13.741,23.121,54.251-18.434,54.251-18.434s-55.896-231.586-68.782-246.467
				C1565.039,1086.524,1512.93,1114.442,1513.939,1135.456z"/>
			<path style="fill:#3F578E;" d="M1513.939,1135.456c1.256,26.204,9.102,43.423,14.799,58.337
				c29.659,77.694,51.159,151.367,63.719,172.513c13.741,23.121,57.651-9.034,57.651-9.034s-49.61-239.578-62.499-254.458
				C1574.723,1087.932,1512.93,1114.442,1513.939,1135.456z"/>
			<path style="fill:#EAB1B8;" d="M1599.721,1397.695c0,0,10.249,33.263,90.56,132.286c10.74,13.243,15.027-5.913,15.027-5.913
				s-62.586-147.758-73.26-161.963C1621.374,1347.895,1599.721,1397.695,1599.721,1397.695z"/>
			<path style="fill:#3F578E;" d="M1627.881,1479.52c-28.232-51.218-38.202-117.382-38.202-117.382s48.366-21.155,59.04-6.945
				c5.388,7.171,24.853,49.796,43.064,90.984C1677.608,1453.221,1628.021,1479.459,1627.881,1479.52z"/>
			<path style="fill:#EAB1B8;" d="M1515.954,1123.386c-14.677,21.747-18.696,40.241-23.061,55.601
				c-22.732,79.989-34.189,141.385-36.78,165.84c-2.832,26.749,39.084,28.199,39.084,28.199s93.814-218.986,92.395-238.62
				C1586.176,1114.77,1527.722,1105.952,1515.954,1123.386z"/>
			<path style="fill:#EAB1B8;" d="M1456.942,1397.057c0,0-5.737,35.553,25.254,159.228c4.146,16.538,17.105-0.094,17.105-0.094
				s5.31-138.03,1.633-155.417C1497.258,1383.387,1456.942,1397.057,1456.942,1397.057z"/>
			<path style="fill:#4865A2;" d="M1445.902,1508.69c-10.165-75.902,5.209-154.197,5.209-154.197s46.332,1.37,50.009,18.757
				c2.072,9.789,18.194,96.316,18.755,135.44H1445.902z"/>
			<path style="fill:#4865A2;" d="M1457.545,1306.152c6.115-34.112,14.111-67.886,23.94-101.121
				c11.16-37.735,20.599-70.833,36.078-106.925c3.975-9.264-1.276-48.636,4.78-52.654c14.109-9.353,50.18,2.06,69.421,5.862
				c4.587,0.905,7.501,3.238,11.459,5.729c6.464,4.069,15.001,26.022,17.19,33.338c5.96,19.902,1.473,44.718-9.13,61.636
				c-8.487,13.539-16.491,27.383-24.288,41.33c-6.699,11.99-14.992,22.685-21.869,34.731c-15.336,26.862-25.316,56.08-36.51,84.964
				c-3.787,9.775-27.84,56.117-27.95,62.893c-0.589,35.863-32.648-15.097-43.655-18.312c-6.338-1.849-5.969-3.022-5.587-9.85
				c0.293-5.213,1.049-10.394,1.823-15.552C1454.558,1323.516,1455.992,1314.825,1457.545,1306.152z"/>
			<path style="fill:#EAB1B8;" d="M1519.446,1063.956c-3.109-62.077-15.177-153.399-7.353-162.235
				c13.773-15.543,14.421-49.505,24.386-61.959c14.904-18.63,27.779-27.378,46.407-0.418c6.317,9.141,14.121,63.944,15.61,70.791
				c3.304,15.172,4.555,90.755,8.299,151.634L1519.446,1063.956z"/>
			<path style="fill:#FFFFFF;" d="M1519.446,1063.956c-3.217-45.464-6.281-83.068-10.228-109.934
				c-1.194-8.142-3.674-16.021-5.024-24.042c-1.25-7.424,2.269-17.636,5.256-24.332c3.046-6.833,6.239-13.661,9.137-20.564
				c2.851-6.795,5.068-13.825,7.295-20.841c0.692-2.182,4.381-18.072,6.577-18.26c0.24-0.019,8.546-0.727,11.829-1.436
				c5.899-1.271,11.394-3.557,16.57-6.64c1.415-0.845,12.638-9.996,12.988-9.63c18.133,19.071,28.513,46.637,31.418,71.101
				c1.049,8.836-0.53,143.882,2.649,162.873L1519.446,1063.956z"/>
			<path style="fill:#9CD4F0;" d="M1527.342,980.973c-0.819-27.599,0.021-55.54,8.173-82.134
				c7.018-22.896,17.495-44.066,29.971-64.437c3.668-2.858,8.142-6.354,8.361-6.124c18.133,19.071,28.513,46.637,31.418,71.101
				c1.049,8.836,20.135,171.49,23.312,190.481l-86.822,16.669C1537.103,1077.758,1528.2,1009.927,1527.342,980.973z"/>
			<g>
				<g>
					<g>
						<path style="fill:#EAB1B8;" d="M1532.318,1027.671c4.754-2.806,17.399-13.257,15.622-21.216
							c-1.49-6.673-4.7-7.748-4.693-7.743c-33.066-17.706-64.421-31.367-90.799-40.382c-25.942-8.865-12.56,13.619-12.56,13.619
							C1464.709,989.857,1486.643,1008.773,1532.318,1027.671z"/>
					</g>
				</g>
			</g>
			<g>
				<g>
					<g>
						<path style="fill:#EAB1B8;" d="M1529.451,1026.47c1.666,1.685,22.239,10.775,26.022,2.351
							c15.31-34.089,22.945-56.352,31.461-81.824c11.599-34.703,12.33-77.032-9.526-80.435
							c-19.292-3.003-26.304,49.575-33.73,91.416c-1.579,8.898-6.894,19.254-13.335,47.885
							C1530.343,1005.863,1526.1,1021.017,1529.451,1026.47z"/>
					</g>
				</g>
			</g>
			<g>
				<g>
					<path style="fill:#FFFFFF;" d="M1528.21,990.884c4.77-17.932,14.005-40.049,15.28-47.233
						c7.426-41.837,16.131-81.144,35.423-78.14c21.857,3.407,20.526,50.087,12.504,85.78c-6.979,31.043-18.152,50.359-31.604,80.923
						C1547.964,1025.841,1531.908,1005.798,1528.21,990.884z"/>
				</g>
			</g>
			<path style="fill:#E76C63;" d="M1541.786,682.505c-2.211,1.445-3.902,3.651-6.481,6.129
				c-5.178,4.965-10.117,10.422-12.227,17.448c-1.354,4.509-2.023,9.939-2.431,14.618c-0.765,8.715,2.41,16.641,9.318,21.873
				c5.347,4.05,11.232,5.96,17.746,6.955c3.365,0.516,7.6,1.375,10.348,3.524c1.992,1.553,2.29,4.369,4.176,5.791
				c6.453,4.862,6.425-5.523,7.028-8.85c-0.317,1.745,0.057,0.436,1.117-3.924c2.306-9.55,2.255-17.354,7.806-25.665
				c4.873-7.297,6.786-20.573,1.678-28.26c-5.765-8.682-21.873-11.329-31.381-11.394
				C1545.507,680.731,1543.492,681.388,1541.786,682.505z"/>
			<path style="fill:#374D7E;" d="M1439.748,1566.872c4.892-0.714,6.411-0.042,11.312-0.84c4.829-0.793,9.583-2.487,13.963-4.66
				c4.332-2.149,10.636-6.542,14.355-9.517c0.469-0.375,0.943-0.69,1.422-0.972c6.617,3.055,10.407,2.854,17.495-0.145
				c0.673-0.286,1.112-0.699,1.359-1.173c0.204,0.159,0.387,0.347,0.556,0.558c1.135,1.455,1.335,3.463,1.603,5.219
				c0.497,3.28,2.039,16.908,1.368,20.137c-0.95,4.561-25.797,10.005-33.95,10.507c-10.979,0.685-19.355,1.145-30.194-0.61
				C1428.468,1583.662,1431.467,1568.078,1439.748,1566.872z"/>
			<path style="fill:#374D7E;" d="M1651.924,1550.292c4.336-2.37,5.997-2.262,10.313-4.721c4.254-2.422,8.121-5.66,11.472-9.222
				c3.313-3.524,7.699-9.836,10.151-13.914c0.31-0.516,0.648-0.976,0.997-1.408c7.267,0.563,10.747-0.943,16.352-6.223
				c0.53-0.497,0.798-1.037,0.863-1.572c0.246,0.08,0.486,0.192,0.716,0.333c1.57,0.967,2.457,2.778,3.318,4.336
				c1.607,2.905,7.79,15.144,8.285,18.405c0.697,4.608-20.707,18.349-28.176,21.658c-10.056,4.458-17.75,7.804-28.523,9.925
				C1647.187,1569.964,1644.58,1554.309,1651.924,1550.292z"/>
			<path style="fill:#E76C63;" d="M1498.767,735.271c1.94-11.263,4.888-23.464,11.385-33.061
				c4.62-6.823,11.842-14.684,19.447-17.983c4.153-1.802,10.435-4.393,14.874-3.768c5.608,11.066-4.899,26.665-9.857,36.721
				c-3.36,6.819-9.196,8.546-14.14,13.356c-3.775,3.67-6.371,8.269-9.569,12.403c-3.417,4.425-7.436,7.588-9.845,12.788
				C1496.54,753.648,1498.103,739.128,1498.767,735.271z"/>
			<path style="fill:#EAB1B8;" d="M1316.747,854.29c1.678-8.198,7.098-15.674,16.136-15.543c7.586,0.108,9.756,8.344,10.974,14.379
				c2.044,10.127,0.608,15.106-9.522,20.047C1319.987,880.171,1314.264,866.435,1316.747,854.29z"/>
			<path style="fill:#E76C63;" d="M1526.45,553.358l-170.338-44.985c0.223-0.986,0.495-2.107,0.594-2.497
				c2.375-9.31,12.347-17.142,15.55-20.695c11.879-8.654,20.974-21.287,25.022-36.609c9.254-35.046-11.373-70.932-46.149-80.693
				l0.007-0.019c-0.115-0.028-0.227-0.051-0.338-0.08c-0.115-0.033-0.223-0.07-0.335-0.099l-0.005,0.019
				c-35.058-8.677-70.718,12.342-79.973,47.384c-4.048,15.322-2.374,30.799,3.682,44.192c1.033,4.669,5.838,16.406,3.304,25.675
				c-0.108,0.384-0.424,1.497-0.716,2.464l-170.338-44.986l-44.988,170.335c-0.986-0.221-2.107-0.493-2.496-0.591
				c-9.313-2.375-17.145-12.347-20.695-15.547c-8.656-11.882-21.292-20.977-36.609-25.022c-35.046-9.259-70.93,11.371-80.693,46.144
				l-0.021-0.005c-0.028,0.113-0.049,0.225-0.077,0.338c-0.031,0.113-0.068,0.221-0.101,0.333l0.021,0.005
				c-8.68,35.06,12.34,70.721,47.386,79.975c15.317,4.045,30.797,2.375,44.19-3.684c4.667-1.027,16.404-5.838,25.672-3.299
				c0.387,0.103,1.499,0.422,2.466,0.714l-44.988,170.34l420.036,110.929L1526.45,553.358z"/>
			<path style="fill:#EAB1B8;" d="M1373.142,966.392c12.089,2.149,19.87,3.126,19.87,3.126l8.578-5.27c0,0-2.29-2.999-12.536-4.341
				c-3.984-0.517-14.449-2.337-12.518-5.772c1.933-3.431,19.187-0.352,28.999-1.366c3.781-0.394,8.072,0.671,11.61,1.929h0.002
				l30.994,2.618l-3.567,14.299l-48.2,9.226l-30.182-10.183C1366.192,970.658,1361.054,964.243,1373.142,966.392z"/>
		</g>
		<g>
			<g>
				<path style="fill:#4865A2;" d="M414.566,638.139c-8.97-1.493-17.631,0.793-25.635,4.815c-3.71,1.863-6.333,3.121-10.355,4.2
					c-13.572,3.632-16.617,23.919-15.557,35.614c0.584,6.424,3.184,12.779,4.986,18.921c4.733,16.134,17.908,32.488,36.275,31.677
					c11.709-0.516,23.746-6.955,30.975-16.134C453.335,694.284,448.511,643.784,414.566,638.139z"/>
				<path style="fill:#EAB1B8;" d="M441.669,1333.193c0,0-16.19,41.386,17.188,174.578c2.672,10.662,10.981,9.986,15.425,6.551
					c2.982-2.304,2.997-6.649,2.997-6.649s15.728-151.747,11.767-170.472C485.085,1318.476,441.669,1333.193,441.669,1333.193z"/>
				<path style="fill:#3A507B;" d="M484.613,1026.859h-77.351c0.007,0.338,0.016,0.685,0.019,1.018
					c0.051,14.801,0.16,29.607,0.361,44.408c0.507,37.444-0.329,27.819,1.846,65.207c1.849,31.799,25.093,176.314,28.425,184.015
					c3.384,7.818,1.774,22.033,8.508,27.946c10.711,9.41,31.655,14.389,40.649,2.643c6.074-7.936,3.332-48.627,4.437-58.74
					c0.939-8.593,0.903-17.396,1.295-25.426c1.581-32.282-0.605-64.639-0.737-96.93
					C491.88,1125.742,491.751,1082.056,484.613,1026.859z"/>
				<path style="fill:#374D7E;" d="M522.379,1521.431c-5.268-0.769-6.903-0.042-12.182-0.905c-5.2-0.85-10.32-2.675-15.038-5.017
					c-4.665-2.318-11.455-7.049-15.461-10.249c-0.505-0.404-1.016-0.742-1.532-1.047c-7.126,3.29-11.206,3.074-18.842-0.16
					c-0.725-0.305-1.197-0.751-1.459-1.262c-0.221,0.174-0.42,0.376-0.601,0.605c-1.223,1.563-1.438,3.726-1.727,5.622
					c-0.535,3.529-2.194,18.203-1.471,21.681c1.023,4.918,27.782,10.775,36.562,11.319c11.824,0.737,20.846,1.234,32.519-0.657
					C534.528,1539.517,531.298,1522.735,522.379,1521.431z"/>
				<g>
					<g>
						<path style="fill:#EAB1B8;" d="M380.538,712.271c3.13,6.805,15.749,13.886,16.901,7.157c0.704-4.12,0.15-12.684-2.977-19.489
							c-3.13-6.805-2.152-8.011-8.358-5.152C379.9,697.639,377.408,705.467,380.538,712.271z"/>
					</g>
				</g>
				<path style="fill:#EAB1B8;" d="M397.214,725.275c1.134-14.81,44.545,12.718,44.545,12.718l-4.646,56.502
					c0,0-0.451-2.267-21.803-1.765c-13.011,0.305-21.111,4.402-20.461-7.753C395.25,777.464,396.822,730.395,397.214,725.275z"/>
				<path style="fill:#E5958A;" d="M396.562,739.56c6.145,19.841,23.778,34.149,42.242,32.68l2.954-34.248
					c0,0-43.411-27.528-44.545-12.718c-0.12,1.568,0.16-3.064-0.495,3.412C396.982,729.006,396.416,739.091,396.562,739.56z"/>
				<path style="fill:#EAB1B8;" d="M451.508,746.078c-12.366,9.94-36.738,7.189-47.461-3.782
					c-6.485-6.631-10.139-14.046-11.61-22.858c-1.654-9.931-0.873-19.306-2.457-29.297c-0.683-4.308-1.27-8.663-1.037-13.037
					c0.369-6.988,2.889-13.896,7.143-19.612c4.186-5.617,10.758-8.471,16.626-12.089c4.965-3.06,10.529-6.837,16.39-7.86
					c4.045-0.704,6.765,1.703,10.111,3.782c18.154,11.281,27.289,36.97,27.8,57.562
					C467.395,714.224,464.235,735.848,451.508,746.078z"/>
				<path style="fill:#4865A2;" d="M398.029,694.786c6.258,4.791,11.678,11.333,18.449,15.397c8.975,5.396,16.611,5.96,25.44,0.065
					c8.665-5.777,16.401-6.776,25.062-5.387c-0.519,14.557-4.327,32.258-15.472,41.217c-12.366,9.94-36.738,7.189-47.461-3.782
					c-6.485-6.631-10.139-14.046-11.61-22.858c-1.65-9.911-0.877-19.274-2.45-29.246
					C392.908,691.238,395.546,692.885,398.029,694.786z"/>
				<path style="fill:#EAB1B8;" d="M385.855,1328.706c0,0,16.19,41.381-17.188,174.578c-2.672,10.662-10.979,9.986-15.426,6.551
					c-2.98-2.304-2.996-6.649-2.996-6.649s-8.02-154.497-4.059-173.217C350.148,1311.24,385.855,1328.706,385.855,1328.706z"/>
				<path style="fill:#3A507B;" d="M345.443,1026.859c-1.72,3.745-2.874,7.156-3.245,9.967
					c-6.647,50.518-6.551,84.063-6.739,129.686c-0.132,32.291,3.416,132.211,5.38,169.744c0.774,14.773,33.633,25.243,44.345,15.838
					c6.734-5.913,11.462-10.986,14.846-18.804c3.332-7.701,15.432-179.581,17.281-211.379c2.175-37.388,2.065-16.669,2.574-54.113
					c0.183-13.646,0.284-27.294,0.34-40.94H345.443z"/>
				<path style="fill:#EAB1B8;" d="M458.052,1010.359c3.348-66.849,16.345-165.206,7.919-174.718
					c-14.832-16.744,6.186-4.149-4.547-17.565c-16.05-20.062-65.963-41.001-86.024-11.966c-6.802,9.845-0.878,31.221-2.482,38.594
					c-3.559,16.336-4.906,97.737-8.938,163.305L458.052,1010.359z"/>
				<path style="fill:#F0928B;" d="M469.608,786.831c-3.705-1.3-27.749-6.415-32.106-7.204c-5.085,4.599-11.293-2.064-18.861-2.37
					c-7.889-0.314-17.14,5.547-22.396,1.459c-0.31-0.239-0.554-0.493-0.791-0.746c-3.881,0.211,6.368,0.535,2.365,0.887
					c-10.477,1.192-42.463,16.458-49.19,20.601c-27.551,16.993-17.65,40.87-17.066,50.584c1.549,25.811,4.001,230.028-0.664,257.908
					c0,0,167.499,0,167.506,0c2.832-2.464-3.991-228.395-5.981-261.23C489.766,802.848,491.054,794.372,469.608,786.831z"/>
				<path style="fill:#374D7E;" d="M412.902,1523.078c-5.268-0.765-6.905-0.037-12.183-0.906
					c-5.202-0.849-10.322-2.675-15.038-5.016c-4.665-2.314-11.455-7.044-15.461-10.245c-0.507-0.408-1.016-0.746-1.532-1.051
					c-7.126,3.294-11.206,3.073-18.842-0.155c-0.725-0.305-1.197-0.756-1.462-1.267c-0.218,0.173-0.418,0.375-0.598,0.605
					c-1.222,1.567-1.438,3.726-1.727,5.622c-0.535,3.533-2.194,18.203-1.471,21.681c1.021,4.918,27.781,10.775,36.562,11.324
					c11.823,0.732,20.846,1.229,32.517-0.662C425.05,1541.164,421.821,1524.383,412.902,1523.078z"/>
				<path style="fill:#3A507B;" d="M481.124,1507.78c4.294-44.338,10.838-156.792,7.921-170.58
					c-3.961-18.724-47.376-4.007-47.376-4.007s-19.372,41.475,15.027,173.587L481.124,1507.78z"/>
				<path style="fill:#3A507B;" d="M372.443,1508.028c27.638-119.343,28.914-188.032,28.914-188.032s-61.422-22.685-59.824,11.967
					c0.671,14.571,2.079,130.348,4.92,176.652L372.443,1508.028z"/>
				<path style="fill:#FFFFFF;" d="M397.038,762.302l28.035,13.229l-11.966,29.25l-41.212-17.95
					C371.894,786.831,385.738,763.296,397.038,762.302z"/>
				<path style="fill:#FFFFFF;" d="M425.073,775.531l16.617,25.923l12.844-16.884c0,0-4.653-14.956-14.956-16.617L425.073,775.531z"
					/>
				<path style="fill:#4865A2;" d="M468.16,627.74c-0.532-7.194-4.874-7.278-11.077-6.345c-6.04,0.911-12.002,2.703-18.21,2.98
					c-6.899,0.305-12.915-1.065-19.578-2.116c-11.511-1.821-23.415,1.126-33.889,6.603c-15.721,8.217-25.28,35.455-22.434,53.343
					c0.941,5.908,3.249,4.519,7.759,8.461c2.055,1.798,4.773,4.045,7.38,4.97c2.299,0.817,5.462-0.263,7.867-0.511
					c0.981-1.347,3.707,1.098,4.538,2.238c1.345,1.849,2.166,5.495,5.268,4.566c2.783-0.831,3.745-4.374,4.029-6.856
					c0.605-5.284-0.132-10.573,0.051-15.861c0.378-10.869,10.364-10.878,18.945-12.464c14.712-2.712,28.234-4.792,40.518-14.543
					C466.116,646.816,468.78,636.084,468.16,627.74z"/>
			</g>
			<g>
				<g>
					<g>
						<path style="fill:#EAB1B8;" d="M451.484,966.205c-13.487-57.815-25.789-61.068-39.706-87.643
							c-20.376-38.913-68.748-74.766-78.288-48.05c-4.674,13.098,80.981,129.911,93.962,152.564
							C435.559,980.785,442.237,970.527,451.484,966.205z"/>
					</g>
				</g>
			</g>
			<g>
				<g>
					<path style="fill:#EC857F;" d="M424.754,990.842c-11.411-18.767-62.319-87.817-66.819-94.997
						c-31.24-49.852-40.037-62.297-23.642-81.238c18.572-21.446,55.575,20.63,79.686,56.145
						c15.92,23.445,23.295,36.121,43.129,82.941C459.436,968.819,439.771,998.022,424.754,990.842z"/>
				</g>
			</g>
			<g>
				<g>
					<g>
						<path style="fill:#EAB1B8;" d="M433.584,980.809c-4.376-4.026-15.348-17.871-11.687-25.858c3.067-6.692,6.69-7.105,6.68-7.105
							c38.805-11.216,74.897-18.565,104.709-22.136c29.314-3.51,10.172,17.166,10.172,17.166
							C513.289,956.162,485.939,971.16,433.584,980.809z"/>
					</g>
				</g>
			</g>
			<path style="fill:#EAB1B8;" d="M546.038,917.85c-6.816,5.547-13.288,11.629-12.406,14.285l0.178,0.535
				c0.693-0.169,1.392-0.338,2.091-0.507c0,0-1.852,1.117,0.816-0.197c0.211-0.051,0.422-0.103,0.633-0.155
				c-1.779,1.929-2.665,4.162-1.595,6.711c3.513,8.376,15.867,3.632,22.101,1.905c5.066-1.403,9.883-3.768,14.501-6.242
				c5.409-2.895,11.186-13.891,6.612-19.489c-4.686-5.74-10.331,3.796-14.128-0.836c-2.104-2.562,3.384-11.563-4.648-6.795
				C558.61,908.286,552.183,912.847,546.038,917.85z"/>
			<g>
				<g>
					<path style="fill:#EC857F;" d="M526.933,926.081c-28.767,3.773-64.852,7.823-101.426,18.396
						c-6.152,8.973-0.544,3.782-3.611,10.474c-3.661,7.987,0.995,32.69,5.37,36.716c47.37-8.729,79.804-30.85,106.84-43.108
						L526.933,926.081z"/>
				</g>
			</g>
			<g>
				<g>
					<path style="fill:#FFFFFF;" d="M523.245,953.806c3.724-1.877,7.342-3.646,10.862-5.242l-7.173-22.483
						c-3.979,0.521-8.121,1.112-12.377,1.765L523.245,953.806z"/>
				</g>
			</g>
		</g>
	</g>
</g>
</svg>
