<?xml version="1.0" encoding="utf-8"?>
<!-- Generator: Adobe Illustrator 27.5.0, SVG Export Plug-In . SVG Version: 6.00 Build 0)  -->
<svg version="1.1" xmlns="http://www.w3.org/2000/svg" xmlns:xlink="http://www.w3.org/1999/xlink" x="0px" y="0px"
	 viewBox="0 0 1000 800" style="enable-background:new 0 0 1000 800;" xml:space="preserve">
<g id="background">
	<rect y="0" style="fill:#43abf7;" width="1000" height="800"/>
</g>
<g id="Shadow">
	<g style="opacity:0.3;">
		<path style="fill:#FFFFFF;" d="M464.83,672.854c-24.388,0.071-48.775,0.645-73.119,3.294c-9.179,0.999-18.165,3.197-27.365,4.083
			c-18.376,1.77-36.424,5.073-54.865,6.597c-14.85,1.227-29.764,1.951-44.571,3.507c-13.883,1.459-29.252,1.123-43.028-1.288
			c-10.198-1.785-20.444-2.79-30.471-5.657c-11.217-3.207-23.403-5.5-35.09-5.417c-16.666,0.118-32.896,0.131-48.844,5.794
			c-5.599,1.988-12.452,5.256-16.704,9.427c-9.732,9.55-11.05,33.378-1.332,43.283c16.368,16.67,51.301,23.211,74.243,23.519
			c25.14,0.338,49.563-1.488,74.74-2.562c23.395-0.998,46.731-2.417,70.165-2.367c47.861,0.102,95.728,0,143.502-3.128
			c44.885-2.939,89.883-1.93,134.866-1.93c46.129,0,91.945,0.355,137.741,6.354c19.954,2.614,40.282,3.529,60.336,5.36
			c17.96,1.64,35.219-0.032,53.108-1.548c15.021-1.273,29.944-5.048,43.59-11.43c10.802-5.052,30.059-20.745,33.372-32.803
			c9.287-33.804-130.879-32.991-152.4-32.915c-24.075,0.085-48.341,0.86-72.397-0.038c-10.119-0.378-20.089-2.313-29.966-4.434
			c-9.837-2.112-19.748-1.575-29.724-2.463c-41.601-3.702-83.294-3.161-125.028-3.161
			C492.005,672.931,478.417,672.815,464.83,672.854z"/>
	</g>
</g>
<g id="object">
	<g id="XMLID_40_">
		<g>
			<polygon style="fill:#E1CFB5;" points="798.76,528.948 798.955,534.994 788.282,538.879 782.131,534.219 782.127,527.18
				788.065,526.849 788.252,525.301 790.196,524.05 			"/>
		</g>
	</g>
	<g>
		<g>
			<g>
				<g>
					<g>
						<polygon style="fill:#353A85;" points="580.479,576.716 582.772,629.9 576.05,720.33 565.992,721.044 553.772,638.912
							536.866,569.413 						"/>
					</g>
					<g>
						<polygon style="fill:#292949;" points="566.53,727.796 581.629,727.796 582.255,722.809 576.842,719.07 565.965,719.843
													"/>
					</g>
				</g>
				<g>
					<g>
						<polygon style="fill:#353A85;" points="509.279,560.898 507.071,601.099 513.621,720.631 523.692,721.134 538.785,642.737
							552.098,556.764 						"/>
					</g>
					<g>
						<polygon style="fill:#292949;" points="523.281,728.183 508.582,728.799 507.085,724.561 512.803,719.388 523.693,719.932
													"/>
					</g>
				</g>
				<g>
					<g>
						<path style="fill:#EED5D5;" d="M567.836,439.469l-31.427-3.367c0,0-17.483,1.868-29.346,43.388
							c-6.6,23.1-8.609,59.494-9.092,87.24c0.742,3.958,5.054,21.295,23.288,18.354c31.311-5.05,47.977-10.1,61.613-7.575
							c11.615,2.525,10.633-13.467,9.357-25.671l-4.629-37.761L567.836,439.469z"/>
					</g>
				</g>
				<g>
					<g>
						<path style="fill:#895F59;" d="M561.767,400.35c-7.921-1.746-16.074-3.311-24.003-1.741c-1.737,0.344-3.601,0.948-4.543,2.447
							c-0.365,0.581-0.558,1.251-0.736,1.913c-2.001,7.438-4.539,18.465,0.357,25.318c0.934,1.307,2.188,2.344,3.535,3.187
							c1.802,1.126,3.796,1.892,5.859,2.299c-0.427,1.849-1.021,3.66-1.774,5.402c1.813,2.734,10.272,3.062,11.836,0.441
							c0.088-2.268,0.175-4.537,0.263-6.805c1.03-0.416,2.025-0.922,2.959-1.537c3.615-2.381,5.997-5.994,7.381-10.037
							c1.507-4.402,3.626-8.586,5.003-13.072c0.501-1.634,0.897-3.5,0.037-4.977c-0.916-1.573-2.891-2.108-4.668-2.504
							C562.772,400.573,562.27,400.461,561.767,400.35z"/>
					</g>
					<g>
						<path style="fill:#353A85;" d="M565.237,421.002c3.806-3.908,8.259-9.373,8.603-14.334c0.284-4.105-0.283-9.701-2.583-13.246
							c-2.152-3.316-7.654-5.139-10.926-7.06c-3.084-1.812-6.169-3.624-9.253-5.435c-0.641-0.377-1.301-0.76-2.034-0.888
							c-0.867-0.151-1.75,0.071-2.602,0.291c-7.29,1.884-14.579,3.768-21.869,5.652c-1.4,0.362-2.996,0.891-3.512,2.242
							c-0.314,0.822-0.129,1.74,0.059,2.6c0.828,3.784,2.417,7.652,2.81,11.486c0.605,3.027,0.489,5.735,2.701,7.948
							c2.082,2.083,4.852,3.22,6.517,5.771c1.202,1.841,1.665,4.058,2.607,6.045c4.269,9,21.552,6.602,27.534,0.859
							C563.901,422.346,564.559,421.699,565.237,421.002z"/>
					</g>
				</g>
			</g>
			<g>
				<polygon style="fill:#EED5D5;" points="561.17,442.157 582.772,418.819 577.683,355.569 587.175,351.4 607.146,415.047
					600.087,434.628 571.123,473.56 				"/>
			</g>
			<g>
				<path style="fill:#C17E72;" d="M585.143,352.293c0,0,0-5.698,0-5.789c0-2.113-5.319-7.047-6.671-8.818
					c-0.772-1.011-4.314,4.499-4.357,5.41c-0.073,1.555,2.167,4.883,2.782,6.497l-1.891,2.7l2.676,3.277L585.143,352.293z"/>
			</g>
			<g>
				<polygon style="fill:#EED5D5;" points="522.524,447.014 498.074,426.679 494.907,363.304 484.954,360.403 473.417,426.104
					482.958,444.603 516.733,479.444 				"/>
			</g>
			<g>
				<path style="fill:#895F59;" d="M487.085,361.024c0,0-0.74-5.65-0.752-5.74c-0.274-2.095,4.358-7.678,5.47-9.61
					c0.634-1.103,4.861,3.901,5.022,4.798c0.275,1.532-1.515,5.123-1.915,6.803l2.225,2.432l-2.227,3.596L487.085,361.024z"/>
			</g>
		</g>
	</g>
	<g>
		<g>
			<path style="fill:#EFBFA5;" d="M138.643,407.574c-3.951-1.934-7.671-4.339-11.057-7.147c-1.101-0.913-2.274-2.2-1.887-3.577
				c0.444-1.579,2.525-1.916,4.159-1.773c3.079,0.271,6.102,1.171,8.827,2.63c0.674-0.213-0.194-1.296,0.106-1.936
				c0.137-0.293,0.497-0.405,0.82-0.423c4.418-0.244,6.142,5.771,7.654,8.665c-3.092,1.623-6.294,1.685-9.04,4.146L138.643,407.574z
				"/>
		</g>
		<g>
			<g>
				<g>
					<path style="fill:#EFBFA5;" d="M328.231,479.155c0,0,5.638,0.825,5.728,0.839c2.091,0.306,11.226-4.3,13.174-5.382
						c1.112-0.618-7.309-4.862-8.204-5.036c-1.528-0.298-5.146,1.437-6.832,1.812l-2.398-2.262l-3.63,2.173L328.231,479.155z"/>
				</g>
				<g>
					<g>
						<polygon style="fill:#292949;" points="187.904,715.047 187.108,721.243 198.702,729.031 205.694,723.632 200.295,716.641
							188.701,708.852 						"/>
					</g>
					<g>
						<g>
							<polygon style="fill:#292949;" points="187.512,712.968 196.454,633.956 185.696,545.503 188.115,526.688 236.166,524.863
								237.9,555.487 229.833,634.078 199.486,717.005 							"/>
						</g>
					</g>
					<g>
						<polygon style="fill:#E2E2E2;" points="243.818,439.158 265.414,451.849 282.546,475.861 328.189,469.245 329.616,481.818
							277.777,499.095 251.21,489.152 						"/>
					</g>
					<g>
						<g>
							<polygon style="fill:#292949;" points="271.424,533.717 271.55,613.45 255.501,716.091 243.949,715.976 237.6,621.056
								222.738,526.051 							"/>
						</g>
						<g>
							<polygon style="fill:#292949;" points="243.967,720.848 256.397,727.219 262.705,721.035 256.522,714.727 244.03,714.602
															"/>
						</g>
					</g>
					<g>
						<g>
							<path style="fill:#E2E2E2;" d="M180.723,560.834c0.11-3.455,0.302-6.339,0.33-7.368c0.247-9.269,1.073-18.517,2.234-27.72
								c1.04-8.247,2.352-28.72,3.764-36.916c1.165-6.767,5.226-23.658,8.16-29.935c7.296-15.61,5.042-17.052,37.092-21.686
								c14.047-2.031,17.367,6.723,28.85,16.789c1.132,0.993,1.07,6.904,1.333,8.47c0.463,2.757,0.958,5.509,1.527,8.248
								c0.447,2.153,0.94,4.299,1.493,6.431l-0.001-0.001c0,0,9.641,43.872,16.016,53.19c6.375,9.317,19.546,22.344-2.486,30.297
								c-3.905,1.262-7.833,2.463-11.897,3.105c0,0-18.018-2.002-27.285-1.933c-8.535,0.064-17.104,0.927-25.494,2.374
								c-5.611,0.938-11.336,2.3-16.355,4.922c-4.788,2.501-8.244,6.18-13.102,8.77c-0.46,0.245-0.965,0.499-1.488,0.427
								C180.622,577.911,180.491,568.106,180.723,560.834z"/>
						</g>
					</g>
					<g>
						<g>
							<path style="fill:#EFBFA5;" d="M229.425,441.249c-1.311,1.238-4.876,2.633-9.139,2.312c-0.859-0.065-1.604-0.645-1.846-1.472
								c-0.68-2.321-1.204-4.688-1.566-7.079c-3.163-0.126-6.924-0.618-8.339-3.45c-0.446-0.892-0.578-1.903-0.704-2.892
								c-0.522-4.089-1.044-8.177-1.566-12.266c-0.181-1.414-0.359-2.872,0.018-4.247c0.661-2.413,2.877-4.06,5.107-5.193
								c5.691-2.891,12.643-3.602,18.514-1.096c1.563,0.667,3.072,1.582,4.088,2.943c1.568,2.099,1.736,4.893,1.844,7.51
								c0.1,2.416,0.2,4.832,0.3,7.248c0.115,2.779,0.038,6.001-2.143,7.726c-1.158,0.916-2.757,1.244-3.715,2.367
								C228.588,435.641,229.831,438.677,229.425,441.249z"/>
						</g>
						<g>
							<path style="fill:#292949;" d="M252.227,391.867c0.293-1.151,0.641-2.282,1.083-3.378c0.958-2.374,2.357-4.587,2.949-7.078
								c0.592-2.491,0.15-5.485-1.935-6.97c-1.346-0.959-3.097-1.106-4.749-1.087c-5.444,0.065-10.863,1.621-15.512,4.454
								c-4.428,2.699-8.105,6.045-13.495,5.725c-5.065-0.301-8.134,1.399-12.362,4.552c-4.575,3.413-11.341,5.965-15.197,9.983
								c-1.61,1.678-2.641,3.843-3.276,6.08c-2.199,7.751,0.517,16.672,6.662,21.882c1.379,1.169,2.902,2.157,4.464,3.067
								c3.232,1.884,7.13,4.24,10.764,4.19c-0.837-3.008-6.445-11.58-4.906-14.729c2.444-4.997,11.081-6.17,15.885-6.601
								c5.24-0.47,10.696,1.667,15.803,0.913c3.675-0.543,7.625-3.641,10.053-6.372
								C251.451,403.126,251.159,396.068,252.227,391.867z"/>
						</g>
					</g>
					<g>
						<polygon style="fill:#E2E2E2;" points="204.27,444.076 179.055,450.551 148.69,403.353 135.875,406.812 157.238,474.758
							206.396,480.676 						"/>
					</g>
				</g>
			</g>
		</g>
	</g>
	<g>
		<g id="XMLID_22_">
			<g id="XMLID_24_">
				<g id="XMLID_37_">
					<g id="XMLID_39_">
						<g>
							<path style="fill:#292949;" d="M817.886,705.92c1.108-1.22,2.401-1.885,3.862-1.656c1.403,0.221,2.665,1.172,3.244,2.444
								c0.395,0.867,0.478,1.835,0.556,2.781c0.404,4.898,0.368,16.525-6.156,18.199c-2.742,0.703-5.01-1.245-5.741-3.706
								C812.549,720.273,814.182,709.998,817.886,705.92z"/>
						</g>
					</g>
					<g id="XMLID_38_">
						<g>
							<path style="fill:#F4C7B3;" d="M815.566,632.037l0.341,29.872c-0.397,13.269,1.675,26.611,1.278,39.881
								c-0.092,3.051-0.886,6.27-0.118,9.294c0.752,2.958,3.156,3.481,5.623,1.983c3.306-2.007,2.773-6.694,3.323-10.113
								c1.513-9.396,3.287-18.748,4.866-28.133c0.774-4.601-0.822-11.049-0.474-15.705c0-0.003,4.826-25.035,4.826-25.035
								L815.566,632.037z"/>
						</g>
					</g>
				</g>
				<g id="XMLID_36_">
					<g>
						<polygon style="fill:#292949;" points="849.697,583.77 836.696,641.523 833.934,696.062 813.318,695.599 807.713,543.045
							847.677,543.77 						"/>
					</g>
				</g>
				<g id="XMLID_31_">
					<g id="XMLID_33_">
						<g id="XMLID_35_">
							<g>
								<path style="fill:#292949;" d="M788.399,704.834c1.156-1.156,2.474-1.745,3.92-1.429c1.389,0.304,2.607,1.33,3.129,2.637
									c0.356,0.891,0.398,1.865,0.436,2.816c0.194,4.925-0.34,16.56-6.913,17.851c-2.763,0.542-4.94-1.541-5.564-4.048
									C782.466,718.884,784.533,708.698,788.399,704.834z"/>
							</g>
						</g>
						<g id="XMLID_34_">
							<g>
								<path style="fill:#F4C7B3;" d="M799.266,636.231l-1.749,29.823c-0.143,8.288-1.247,16.512-2.105,24.744
									c-0.797,7.647,0.443,15.611-3.553,22.566c-1.253,2.181-3.786,3.633-5.556,0.983c-1.364-2.042-0.554-5.448-0.815-7.765
									c-1.068-9.456-2.399-18.881-3.535-28.329c-0.557-4.632,1.342-10.999,1.214-15.666c0-0.003-3.64-25.232-3.64-25.232
									L799.266,636.231z"/>
							</g>
						</g>
					</g>
					<g id="XMLID_32_">
						<g>
							<polygon style="fill:#292949;" points="773.177,580.239 771.5,636.3 780.297,692.993 801.268,693.62 800.342,632.265
								811.439,581.384 815.164,548.078 781.89,544.153 							"/>
						</g>
					</g>
				</g>
				<g id="XMLID_30_">
					<g>
						<polygon style="fill:#DDDAE8;" points="799.5,429.421 835.348,428.565 856.132,467.219 848.744,503.425 847.429,546.753
							796.294,547.451 779.468,544.719 783.936,498.424 781.374,436.582 						"/>
					</g>
				</g>
				<g id="XMLID_25_">
					<g id="XMLID_29_">
						<g>
							<path style="fill:#F4C7B3;" d="M804.198,395.968c7.057-15.042,27.049-6.965,29.8,7.403
								c1.795,9.372-6.481,20.391-16.163,21.983c-0.08,0.353-1.115,3.403-1.146,3.686c-0.164,1.456-0.498,2.872-0.87,4.304
								c-0.139,0.534-8.196-1.934-9.094-2.214c-0.314-0.098-0.663-0.224-0.807-0.512c-0.276-0.552,1.395-4.736,1.517-5.303
								c0.144-0.67,0.288-1.34,0.432-2.01c-4.393-2.763-6.8-7.9-7.088-12.896C800.49,405.391,802.078,400.489,804.198,395.968z"/>
						</g>
					</g>
					<g id="XMLID_26_">
						<g id="XMLID_28_">
							<g>
								<path style="fill:#292949;" d="M819.174,383.303c0.985,1.242,1.25,2.855,1.407,4.393c0.094,0.918,0.157,1.865-0.131,2.733
									c-1.148,3.464-4.646,2.899-7.489,3.749c-3.506,1.048-6.679,3.331-8.879,6.117c-3.446,4.363-2.772,10.528-2.135,15.819
									c0.224,1.864,0.779,4.66-0.807,6.131c-1.611,1.494-4.898,0.882-6.523-0.151c-1.485-0.944-2.619-2.517-4.311-2.991
									c-1.79-0.502-4.341,0.034-5.009-1.73c-0.186-0.491-0.146-1.062-0.399-1.521c-0.852-1.549-3.54-0.132-4.85-1.301
									c-0.806-0.719-0.656-2.049-0.247-3.071c0.409-1.022,1.021-2.036,0.931-3.129c-0.078-0.94-0.663-1.74-0.984-2.622
									c-0.633-1.743-0.12-3.868,1.238-5.135c2.525-2.356,6.817-1.395,9.486-3.579c1.391-1.138,2.074-2.922,2.729-4.61
									c0.655-1.688,1.413-3.46,2.88-4.493c1.812-1.276,4.175-0.772,5.993-2.321c1.069-0.911,1.851-2.161,3.023-2.927
									c1.545-1.01,4.416-1.605,6.245-2.008C814.244,380.016,817.311,380.953,819.174,383.303z"/>
							</g>
						</g>
						<g id="XMLID_27_">
							<g>
								<path style="fill:#292949;" d="M829.531,409.638c-0.458,5.152-3.612,10.435-1.731,15.216
									c1.898,4.825,7.767,6.291,12.82,7.076c0.831,0.129,11.449,2.21,11.516,2.012c1.188-3.495,2.412-7.058,4.623-10.001
									c2.211-2.943,5.621-5.211,9.229-5.048c-1.015-0.291-1.4-1.613-1.165-2.668c0.235-1.055,0.891-1.958,1.321-2.948
									c1.057-2.435,0.61-5.458-1.099-7.434c-3.41-3.942-10.442-3.216-13.255-7.625c-1.744-2.734-1.11-6.358-1.835-9.544
									c-1.401-6.161-7.772-8.105-12.344-11.312c-4.826-3.385-9.491-5.458-15.521-5.11c-7.474,0.432-13.738,7.319-11.665,14.659
									c2.659,9.414,17.264,10.201,18.995,19.655C829.607,407.582,829.623,408.607,829.531,409.638z"/>
							</g>
						</g>
					</g>
				</g>
			</g>
			<g id="XMLID_23_">
				<g>
					<polygon style="fill:#F9F9F9;" points="824.743,429.215 813.622,444.933 808.394,444.505 799.681,428.565 					"/>
				</g>
			</g>
		</g>
		<g>
			<path style="fill:#DDDAE8;" d="M799.681,428.565l-20.213,1.098c0,0-22.688,11.156-24.189,10.319
				c-1.501-0.838-26.017-49.921-26.017-49.921l-12.008,3.899l15.01,56.148l14.509,15.002l41.026-6.828L799.681,428.565z"/>
		</g>
		<g>
			<path style="fill:#F4C7B3;" d="M719.134,393.271c0,0-3.174-4.732-3.224-4.808c-1.177-1.755,0.492-8.815,0.629-11.039
				c0.078-1.27,6.089,1.334,6.632,2.067c0.927,1.25,0.92,5.263,1.308,6.946l3.074,1.189l-0.397,4.212L719.134,393.271z"/>
		</g>
	</g>
	<g>
		<g>
			<polygon style="fill:#373F8C;" points="294.575,247.896 231.409,219.356 231.409,143.387 294.575,171.927 			"/>
		</g>
		<g>
			<polygon style="fill:#333A7F;" points="294.575,247.896 357.74,219.356 357.74,143.387 294.575,171.927 			"/>
		</g>
		<g>
			<polygon style="fill:#3F4991;" points="231.409,143.387 294.575,171.927 357.74,143.387 294.575,117.475 			"/>
		</g>
	</g>
	<g>
		<g>
			<polygon style="fill:#5D66D3;" points="798.988,205.496 745.912,181.515 745.912,117.68 798.988,141.662 			"/>
		</g>
		<g>
			<polygon style="fill:#474EBB;" points="798.988,205.496 852.064,181.515 852.064,117.68 798.988,141.662 			"/>
		</g>
		<g>
			<polygon style="fill:#717DDB;" points="745.912,117.68 798.988,141.662 852.064,117.68 798.988,95.907 			"/>
		</g>
	</g>
	<g>
		<path style="fill:#FFFFFF;" d="M477.869,266.096l-7.443-3.37l1.313-2.898l7.442,3.37L477.869,266.096z M464.63,260.1l-8.695-3.938
			l1.313-2.898l8.695,3.938L464.63,260.1z M450.137,253.537l-8.695-3.938l1.313-2.898l8.695,3.938L450.137,253.537z
			 M435.645,246.973l-8.696-3.938l1.313-2.898l8.696,3.938L435.645,246.973z M421.152,240.41l-8.696-3.938l1.313-2.898l8.696,3.938
			L421.152,240.41z M406.659,233.846l-8.695-3.938l1.313-2.898l8.695,3.938L406.659,233.846z M392.167,227.283l-8.695-3.938
			l1.313-2.898l8.695,3.938L392.167,227.283z M377.674,220.719l-8.696-3.938l1.313-2.898l8.696,3.938L377.674,220.719z
			 M363.182,214.156l-8.696-3.938l1.313-2.898l8.696,3.938L363.182,214.156z M348.689,207.592l-8.696-3.938l1.313-2.898l8.696,3.938
			L348.689,207.592z M334.196,201.029l-8.696-3.938l1.313-2.898l8.696,3.938L334.196,201.029z"/>
	</g>
	<g>
		<path style="fill:#FFFFFF;" d="M166.608,266.35l-1.895-2.556l3.931-2.913l1.895,2.556L166.608,266.35z M175.651,259.648
			l-1.895-2.556l7.669-5.684l1.895,2.556L175.651,259.648z M188.433,250.175l-1.895-2.556l7.669-5.684l1.895,2.556L188.433,250.175z
			 M201.215,240.702l-1.895-2.556l7.669-5.684l1.895,2.556L201.215,240.702z M213.997,231.23l-1.895-2.556l7.669-5.684l1.894,2.556
			L213.997,231.23z M226.779,221.757l-1.894-2.556l7.669-5.684l1.894,2.556L226.779,221.757z M239.561,212.284l-1.895-2.556
			l7.669-5.684l1.895,2.556L239.561,212.284z M252.343,202.811l-1.894-2.556l7.669-5.684l1.894,2.556L252.343,202.811z"/>
	</g>
	<g>
		<g>
			<polygon style="fill:#5D66D3;" points="144.302,359.936 91.226,335.954 91.226,272.12 144.302,296.101 			"/>
		</g>
		<g>
			<polygon style="fill:#474EBB;" points="144.302,359.936 197.378,335.954 197.378,272.12 144.302,296.101 			"/>
		</g>
		<g>
			<polygon style="fill:#717DDB;" points="91.226,272.12 144.302,296.101 197.378,272.12 144.302,250.346 			"/>
		</g>
	</g>
	<g>
		<path style="fill:#FFFFFF;" d="M475.355,280.997l-1.174-2.957l0.269-0.107l1.174,2.957L475.355,280.997z M481.539,278.54
			l-1.175-2.957l8.871-3.525l1.175,2.957L481.539,278.54z M496.324,272.666l-1.175-2.957l8.871-3.525l1.175,2.957L496.324,272.666z
			 M511.109,266.791l-1.175-2.957l8.871-3.525l1.175,2.957L511.109,266.791z M525.894,260.917l-1.175-2.957l8.871-3.525l1.175,2.957
			L525.894,260.917z M540.68,255.042l-1.175-2.957l8.871-3.525l1.175,2.957L540.68,255.042z M555.465,249.168l-1.175-2.957
			l8.871-3.525l1.175,2.957L555.465,249.168z M570.25,243.294l-1.175-2.957l8.871-3.525l1.175,2.957L570.25,243.294z
			 M585.036,237.419l-1.175-2.957l8.871-3.525l1.175,2.957L585.036,237.419z M599.821,231.545l-1.175-2.957l8.871-3.525l1.175,2.957
			L599.821,231.545z M614.606,225.671l-1.175-2.957l8.871-3.524l1.175,2.957L614.606,225.671z M629.392,219.796l-1.175-2.957
			l8.871-3.525l1.175,2.957L629.392,219.796z M644.177,213.922l-1.175-2.957l8.871-3.525l1.175,2.957L644.177,213.922z
			 M658.963,208.047l-1.175-2.957l8.871-3.525l1.175,2.957L658.963,208.047z M673.748,202.173l-1.175-2.957l8.871-3.525l1.175,2.957
			L673.748,202.173z M688.533,196.298l-1.175-2.957l8.871-3.525l1.175,2.957L688.533,196.298z M703.318,190.424l-1.175-2.957
			l8.871-3.525l1.175,2.957L703.318,190.424z M718.104,184.55l-1.175-2.957l8.871-3.525l1.175,2.957L718.104,184.55z
			 M732.889,178.675l-1.175-2.957l8.871-3.525l1.175,2.957L732.889,178.675z M747.674,172.801l-1.175-2.957l8.871-3.525l1.175,2.957
			L747.674,172.801z M762.46,166.926l-1.175-2.957l8.871-3.525l1.175,2.957L762.46,166.926z"/>
	</g>
	<g>
		<g>
			<polygon style="fill:#5D66D3;" points="528.573,368.54 420.963,319.919 420.963,190.496 528.573,239.118 			"/>
		</g>
		<g>
			<polygon style="fill:#474EBB;" points="528.573,368.54 636.183,319.919 636.183,190.496 528.573,239.118 			"/>
		</g>
		<g>
			<polygon style="fill:#717DDB;" points="420.963,190.496 528.573,239.118 636.183,190.496 528.573,146.351 			"/>
		</g>
	</g>
	<g>
		<path style="fill:#FFFFFF;" d="M706.603,336.885l-8.712-3.901l1.3-2.904l8.712,3.901L706.603,336.885z M692.083,330.383
			l-8.712-3.901l1.3-2.904l8.712,3.901L692.083,330.383z M677.562,323.882l-8.712-3.901l1.3-2.904l8.712,3.901L677.562,323.882z
			 M663.042,317.38l-8.712-3.901l1.301-2.904l8.712,3.901L663.042,317.38z M648.522,310.878l-8.712-3.901l1.3-2.904l8.712,3.901
			L648.522,310.878z M634.001,304.376l-8.712-3.901l1.3-2.904l8.712,3.901L634.001,304.376z M619.481,297.875l-8.713-3.901
			l1.3-2.904l8.712,3.901L619.481,297.875z M604.96,291.373l-8.712-3.901l1.3-2.904l8.712,3.901L604.96,291.373z M590.44,284.871
			l-8.712-3.901l1.3-2.904l8.712,3.901L590.44,284.871z"/>
	</g>
	<g>
		<path style="fill:#FFFFFF;" d="M387.533,337.985l-1.731-2.67l8.009-5.194l1.731,2.67L387.533,337.985z M400.882,329.328
			l-1.731-2.67l8.009-5.194l1.731,2.67L400.882,329.328z M414.23,320.672l-1.731-2.67l8.009-5.194l1.731,2.67L414.23,320.672z
			 M427.579,312.016l-1.731-2.67l8.009-5.194l1.731,2.67L427.579,312.016z M440.927,303.359l-1.731-2.67l8.009-5.194l1.731,2.67
			L440.927,303.359z M454.276,294.703l-1.731-2.67l8.009-5.194l1.731,2.67L454.276,294.703z M467.625,286.047l-1.731-2.67
			l8.009-5.194l1.731,2.67L467.625,286.047z"/>
	</g>
	<g>
		<g>
			<polygon style="fill:#5D66D3;" points="350.737,474.567 277.144,441.315 277.144,352.805 350.737,386.057 			"/>
		</g>
		<g>
			<polygon style="fill:#474EBB;" points="350.737,474.567 424.331,441.315 424.331,352.805 350.737,386.057 			"/>
		</g>
		<g>
			<polygon style="fill:#717DDB;" points="277.144,352.805 350.737,386.057 424.331,352.805 350.737,322.614 			"/>
		</g>
	</g>
	<g>
		<g>
			<polygon style="fill:#373F8C;" points="747.732,397.962 674.138,364.711 674.138,276.2 747.732,309.452 			"/>
		</g>
		<g>
			<polygon style="fill:#333A7F;" points="747.732,397.962 821.325,364.711 821.325,276.2 747.732,309.452 			"/>
		</g>
		<g>
			<polygon style="fill:#3F4991;" points="674.138,276.2 747.732,309.452 821.325,276.2 747.732,246.009 			"/>
		</g>
	</g>
	<g>
		<path style="fill:#F4C7B3;" d="M813.231,532.766c-2.175,2.209-5.176,4.121-8.254,3.729c-1.228-0.156-2.448-0.372-3.656-0.646
			c-0.951-0.216-1.925-0.483-2.681-1.11c-0.757-0.627-1.241-1.705-0.919-2.656c0.454-1.342,2.084-1.703,3.275-2.425
			c1.488-0.903,2.398-2.525,3.566-3.837c2.665-2.992,6.262-3.274,9.66-4.869c0.156-0.073,1.995,2.049,2.165,2.239
			c1.231,1.382,1.343,1.684,0.646,3.432C816.172,528.78,814.917,531.054,813.231,532.766z"/>
	</g>
	<g id="XMLID_21_">
		<g>
			<polygon style="fill:#DDDAE8;" points="836.536,431.23 865.636,475.553 861.263,500.244 816.194,531.465 807.713,524.05
				837.844,485.961 836.674,461.892 			"/>
		</g>
	</g>
</g>
</svg>
